<svg id="Capa_1" enable-background="new 0 0 512 512" height="512" viewBox="0 0 512 512" width="512" xmlns="http://www.w3.org/2000/svg"><g><g><g><g><g><g><g><g><g><circle cx="256" cy="256" fill="#ffce00" r="256"/></g></g></g></g></g></g></g></g><path d="m405.672 203.688-2.177 3.667-84.438-85.768-213.128 195.496 191.571 191.57c105.536-17.203 189.397-98.936 209.762-203.376z" fill="#ffa300"/><g><path d="m213.276 77c-71.35 0-129.191 46.884-129.191 104.717 0 21.573 8.049 41.623 21.844 58.284v77.082l47.36-42.597c17.926 7.631 38.334 11.95 59.987 11.95 71.35 0 129.191-46.884 129.191-104.717s-57.841-104.719-129.191-104.719z" fill="#fe6a16"/></g><g><path d="m213.276 77c-.177 0-.352.005-.529.005v209.423c.177.001.352.007.529.007 71.35 0 129.191-46.884 129.191-104.717s-57.841-104.718-129.191-104.718z" fill="#f24500"/></g><g><path d="m305.809 165.407c71.35 0 129.191 46.884 129.191 104.717 0 21.573-8.049 41.623-21.844 58.284v77.082l-47.359-42.597c-17.926 7.631-38.334 11.949-59.987 11.949-71.35 0-129.191-46.884-129.191-104.717s57.84-104.718 129.19-104.718z" fill="#fff"/></g><g><path d="m305.809 165.407c-.299 0-.595.008-.894.009v209.417c.298.002.595.009.894.009 21.653 0 42.061-4.318 59.987-11.949l47.36 42.597v-77.082c13.795-16.661 21.844-36.71 21.844-58.284 0-57.834-57.841-104.717-129.191-104.717z" fill="#e9edf5"/></g><g><g><circle cx="244.886" cy="270.027" fill="#cdd2e1" r="20.027"/></g><g><circle cx="366.732" cy="270.027" fill="#afb4c8" r="20.027"/></g></g><g><circle cx="305.809" cy="270.027" fill="#cdd2e1" r="20.027"/></g><g><path d="m305.809 250c-.302 0-.595.032-.894.045v39.964c.299.013.592.045.894.045 11.061 0 20.027-8.966 20.027-20.027s-8.966-20.027-20.027-20.027z" fill="#afb4c8"/></g></g></svg>